# xmcd
#
# Track frame offsets:
#	150
#	15016
#	27938
#	38592
#	56889
#	68192
#	83194
#	93853
#	108236
#	123246
#	140269
#	154979
#
# Disc length: 2267 seconds
#
# Revision: 5
# Processed by: cddbd v1.5.2PL0 Copyright (c) Steve Scherf et al.
# Submitted via: audiograbber 1.83.01
#
DISCID=8c08d90c
DTITLE=The Beach Boys - Stars and Stripes Vol. 1
DYEAR=1996
DGENRE=Crossover
TTITLE0=Don't Worry Baby (w Lorrie Morgan)
TTITLE1=Little Deuce Coupe (w James House)
TTITLE2=409 (w Junior Brown)
TTITLE3=Long Tall Texan (w Doug Supernaw)
TTITLE4=I Get Around (w Sawyer Brown)
TTITLE5=Be True To Your School (w Toby Keith)
TTITLE6=Fun, Fun, Fun  (w Ricky Van Shelton)
TTITLE7=Help Me Rhonda (w T. Graham Brown)
TTITLE8=The Warmth Of The Sun (w Willie Nelson)
TTITLE9=Sloop John B. (w Collin Raye)
TTITLE10=I Can Hear Music (w Kathy Trocolli)
TTITLE11=Caroline, No (w Timothy B. Schmitt)
EXTD=YEAR: 1996
EXTT0=
EXTT1=
EXTT2=
EXTT3=
EXTT4=
EXTT5=
EXTT6=
EXTT7=
EXTT8=
EXTT9=
EXTT10=
EXTT11=
PLAYORDER=
